<svg xmlns="http://www.w3.org/2000/svg" viewBox="0 0 64 64" width="64" height="64">
  <defs>
    <linearGradient id="main" x1="0%" y1="0%" x2="100%" y2="100%">
      <stop offset="0%" stop-color="#FDE68A"/>
      <stop offset="50%" stop-color="#F59E0B"/>
      <stop offset="100%" stop-color="#EA580C"/>
    </linearGradient>
    <linearGradient id="dim" x1="0%" y1="0%" x2="0%" y2="100%">
      <stop offset="0%" stop-color="#F59E0B"/>
      <stop offset="100%" stop-color="#92400E"/>
    </linearGradient>
  </defs>

  <rect width="64" height="64" rx="13" fill="#111008"/>
  <rect width="64" height="64" rx="13" fill="none" stroke="#F59E0B" stroke-width="0.6" stroke-opacity="0.18"/>

  <polygon points="9,12 18,12 32,40 26,40" fill="url(#main)"/>
  <polygon points="46,12 38,12 32,40 38,40" fill="url(#dim)"/>

  <rect x="38" y="12" width="8" height="30" fill="url(#dim)"/>

  <path d="M46,12 Q58,12 58,21 Q58,30 46,30 L46,12 Z" fill="url(#main)"/>
  <path d="M46,17 Q53,17 53,21 Q53,25 46,25 L46,17 Z" fill="#111008"/>

  <circle cx="32" cy="40" r="2" fill="#FDE68A" opacity="0.6"/>
</svg>
